<svg width="100" height="100" viewBox="0 0 100 100" fill="none" xmlns="http://www.w3.org/2000/svg">
<path d="M66.732 83.3351C66.732 92.54 59.2697 100.002 50.0648 100.002C40.86 100.002 33.3984 92.54 33.3984 83.3351C33.3984 74.1303 40.86 66.668 50.0648 66.668C59.2697 66.668 66.732 74.1303 66.732 83.3351Z" fill="#FFA000"/>
<path d="M50.0648 16.6664C47.7654 16.6664 45.8984 14.8003 45.8984 12.5V4.16641C45.8984 1.86691 47.7654 0 50.0648 0C52.3651 0 54.232 1.86691 54.232 4.16641V12.5C54.232 14.8003 52.3651 16.6664 50.0648 16.6664Z" fill="#FFA000"/>
<path d="M89.1441 70.4651C82.8445 65.1397 79.232 57.3608 79.232 49.115V37.4984C79.232 21.4149 66.1446 8.33203 50.0648 8.33203C33.9859 8.33203 20.8984 21.4149 20.8984 37.4984V49.115C20.8984 57.3608 17.2859 65.1443 10.9482 70.5024C9.3277 71.8857 8.39844 73.9067 8.39844 76.0399C8.39844 80.0613 11.6692 83.332 15.6898 83.332H84.4398C88.4613 83.332 91.732 80.0613 91.732 76.0399C91.732 73.9067 90.8028 71.8857 89.1441 70.4651Z" fill="#FFC107"/>
</svg>
