<svg width="24" height="24" viewBox="0 0 24 24" fill="none" xmlns="http://www.w3.org/2000/svg">
<path d="M12 15.75C14.0711 15.75 15.75 14.0711 15.75 12C15.75 9.92893 14.0711 8.25 12 8.25C9.92893 8.25 8.25 9.92893 8.25 12C8.25 14.0711 9.92893 15.75 12 15.75Z" stroke="#1D1D1D" stroke-linecap="round" stroke-linejoin="round"/>
<path d="M16.9779 19.5002C15.3071 20.6091 13.3137 21.1283 11.3142 20.9753C9.31468 20.8223 7.42351 20.006 5.94076 18.6558C4.45802 17.3057 3.46863 15.499 3.12959 13.5225C2.79054 11.546 3.12126 9.51291 4.06927 7.74578C5.01728 5.97864 6.52827 4.57871 8.3625 3.76811C10.1967 2.9575 12.2491 2.78266 14.194 3.27132C16.139 3.75998 17.865 4.88415 19.0982 6.46546C20.3315 8.04677 21.0014 9.99464 21.0015 12C21.0015 14.0711 20.2515 15.75 18.3765 15.75C16.5015 15.75 15.7515 14.0711 15.7515 12V8.25001" stroke="#1D1D1D" stroke-linecap="round" stroke-linejoin="round"/>
</svg>
