<svg width="24" height="24" viewBox="0 0 24 24" fill="none" xmlns="http://www.w3.org/2000/svg">
<path d="M4.5 3.75012L19.5 20.2501" stroke="#1D1D1D" stroke-width="1.5" stroke-linecap="round" stroke-linejoin="round"/>
<path d="M14.5226 14.7749C13.7866 15.4438 12.8151 15.793 11.8217 15.7457C10.8284 15.6983 9.89446 15.2583 9.22548 14.5225C8.5565 13.7866 8.20723 12.8151 8.25448 11.8217C8.30174 10.8283 8.74167 9.89439 9.47749 9.22534" stroke="#1D1D1D" stroke-width="1.5" stroke-linecap="round" stroke-linejoin="round"/>
<path d="M6.93698 6.43079C3.11486 8.36631 1.5 12.0001 1.5 12.0001C1.5 12.0001 4.5 18.7494 12 18.7494C13.7572 18.7634 15.4926 18.3587 17.0623 17.5687" stroke="#1D1D1D" stroke-width="1.5" stroke-linecap="round" stroke-linejoin="round"/>
<path d="M19.5571 15.8532C21.6011 14.0225 22.5 12.0001 22.5 12.0001C22.5 12.0001 19.5 5.24941 12 5.24941C11.3504 5.24834 10.7019 5.30115 10.061 5.40729" stroke="#1D1D1D" stroke-width="1.5" stroke-linecap="round" stroke-linejoin="round"/>
<path d="M12.7058 8.31647C13.5028 8.46952 14.2288 8.87686 14.7747 9.47741C15.3206 10.0779 15.6571 10.8393 15.7337 11.6473" stroke="#1D1D1D" stroke-width="1.5" stroke-linecap="round" stroke-linejoin="round"/>
</svg>
