<svg width="61" height="60" viewBox="0 0 61 60" fill="none" xmlns="http://www.w3.org/2000/svg">
<path d="M39.875 11.25H49.25V20.625" stroke="#3366FF" stroke-linecap="round" stroke-linejoin="round"/>
<path d="M21.125 48.75H11.75V39.375" stroke="#3366FF" stroke-linecap="round" stroke-linejoin="round"/>
<path d="M49.25 39.375V48.75H39.875" stroke="#3366FF" stroke-linecap="round" stroke-linejoin="round"/>
<path d="M11.75 20.625V11.25H21.125" stroke="#3366FF" stroke-linecap="round" stroke-linejoin="round"/>
<path d="M25.5551 38.1095L25.5157 38.1402C26.4234 39.3054 28.3657 40.05 30.4572 40.05C32.6505 40.05 34.6319 39.2544 35.4963 38.0083L35.4963 38.0083C35.5692 37.9029 35.5654 37.7861 35.4999 37.6877C35.4365 37.5923 35.3182 37.5178 35.1662 37.4786L35.166 37.4785C35.0134 37.4397 34.8499 37.4418 34.7078 37.4769C34.5668 37.5117 34.4403 37.5807 34.3698 37.6823L34.3698 37.6823C33.7096 38.6344 32.1771 39.259 30.4572 39.259C28.8179 39.259 27.3135 38.6742 26.6185 37.7823L26.6185 37.7823C26.5417 37.6838 26.4113 37.6181 26.2681 37.587C26.124 37.5556 25.9602 37.5577 25.8099 37.6013M25.5551 38.1095L25.5157 38.1403C25.4361 38.0383 25.4306 37.9215 25.4897 37.8202C25.5468 37.7222 25.6606 37.6443 25.8099 37.6013M25.5551 38.1095C26.4498 39.2579 28.3742 40 30.4572 40C32.6422 40 34.6039 39.207 35.4552 37.9798M25.5551 38.1095L35.4552 37.9798M25.8099 37.6013C25.8099 37.6013 25.8099 37.6013 25.8099 37.6012L25.8238 37.6493L25.8098 37.6013C25.8098 37.6013 25.8099 37.6013 25.8099 37.6013ZM35.4552 37.9798C35.5769 37.8041 35.4423 37.6014 35.1537 37.527C34.865 37.4535 34.5329 37.5351 34.4109 37.7108C33.7375 38.6818 32.1854 39.309 30.4572 39.309C28.8094 39.309 27.2871 38.7217 26.579 37.8131L35.4552 37.9798Z" fill="#3366FF" stroke="#3366FF" stroke-width="0.1"/>
<path d="M27.8774 32.6143L27.8774 32.6143C28.0912 32.8461 28.1083 33.2391 27.9179 33.4962C27.1595 34.5204 26.341 35.05 25.4825 35.05L27.8774 32.6143ZM27.8774 32.6143C27.7692 32.4972 27.6299 32.4421 27.4915 32.4513C27.3532 32.4604 27.2205 32.5334 27.1241 32.6633L27.1241 32.6633M27.8774 32.6143L27.1241 32.6633M27.1241 32.6633C26.5389 33.4534 25.9648 33.8228 25.4131 33.7889L25.4129 33.7889M27.1241 32.6633L25.4129 33.7889M25.4129 33.7889C24.9835 33.764 24.6101 33.5018 24.3399 33.2375M25.4129 33.7889L24.3399 33.2375M24.3399 33.2375C24.2054 33.106 24.0981 32.9756 24.024 32.8774M24.3399 33.2375L24.024 32.8774M24.024 32.8774C23.987 32.8283 23.9583 32.7873 23.9388 32.7584M24.024 32.8774L23.9388 32.7584M23.9388 32.7584C23.929 32.7439 23.9215 32.7325 23.9164 32.7245M23.9388 32.7584L23.9164 32.7245M23.9164 32.7245L23.9105 32.7153M23.9164 32.7245L23.9105 32.7153M23.9105 32.7153L23.9089 32.7128M23.9105 32.7153L23.9089 32.7128M23.9089 32.7128C23.9085 32.7121 23.9084 32.7119 23.9084 32.7119M23.9089 32.7128L23.9084 32.7119M23.9084 32.7119L23.8657 32.7379M23.9084 32.7119L23.8657 32.7379M23.8657 32.7379L23.9085 32.7121C23.8242 32.5722 23.6991 32.484 23.5629 32.458M23.8657 32.7379L23.5629 32.458M23.5629 32.458C23.4264 32.432 23.2829 32.4694 23.1649 32.5728L23.5629 32.458ZM23.6941 34.235C24.09 34.6146 24.6574 35.0023 25.3516 35.0457L23.1649 32.5728C22.9309 32.7779 22.8818 33.1677 23.0483 33.4457L23.0484 33.4458C23.0677 33.478 23.2976 33.855 23.6941 34.235Z" fill="#3366FF" stroke="#3366FF" stroke-width="0.1"/>
<path d="M35.4136 33.7888L35.414 33.7888C35.9635 33.8242 36.5395 33.453 37.1243 32.6632C37.2202 32.5333 37.353 32.4602 37.4914 32.451C37.6299 32.4418 37.7694 32.4968 37.8774 32.6142C37.8775 32.6142 37.8775 32.6142 37.8775 32.6143L37.8407 32.6481C38.0377 32.8617 38.0543 33.228 37.8777 33.4663L35.4136 33.7888ZM35.4136 33.7888C34.9856 33.7642 34.6131 33.5036 34.3428 33.2401C34.0759 32.9799 33.9155 32.7235 33.9082 32.7117C33.8239 32.5719 33.6986 32.4839 33.5624 32.458C33.4258 32.4321 33.2822 32.4696 33.1646 32.5731L33.1976 32.6106L33.1647 32.573C32.9306 32.7782 32.882 33.1676 33.0484 33.4457L33.0484 33.4457C33.0678 33.4779 33.2977 33.855 33.6944 34.2351C34.0905 34.6147 34.6581 35.0024 35.3525 35.0456L35.4136 33.7888Z" fill="#3366FF" stroke="#3366FF" stroke-width="0.1"/>
<path d="M31.5924 19.493L31.5924 19.493C30.2536 19.6167 29.1515 19.7184 28.2242 19.726C27.297 19.7336 26.5492 19.6469 25.9183 19.3965C24.661 18.8974 23.8507 17.7404 23.026 15.3155C22.9457 15.0783 22.7124 14.9287 22.4717 14.9525L22.4715 14.9525C22.4025 14.9595 22.3354 14.9807 22.274 15.0147L22.2739 15.0148C22.1326 15.0936 18.8341 16.9729 17.8692 20.7469C17.2854 23.0296 17.6892 25.4836 19.0612 28.0474C17.0124 28.4182 15.45 30.2993 15.45 32.5601C15.45 35.0876 17.3974 37.1483 19.797 37.1483H20.0709C21.7212 41.768 25.7857 45.05 30.5344 45.05C35.2819 45.05 39.3451 41.7683 40.9951 37.1483H41.204C43.6029 37.1483 45.55 35.0876 45.55 32.5601C45.5497 30.2344 43.898 28.3072 41.7642 28.0169C41.7241 27.3214 41.6015 26.0839 41.2259 24.7519C40.8429 23.3935 40.1958 21.9326 39.101 20.849C37.8936 19.6538 36.3416 19.1153 34.4951 19.2475C33.4509 19.3221 32.4965 19.4099 31.6515 19.4875L31.5924 19.493ZM18.8821 21.0425C19.5116 18.5678 21.3591 16.9758 22.2629 16.3239C23.1885 18.785 24.2263 19.9816 25.6941 20.4954C26.4316 20.7536 27.2739 20.838 28.2582 20.8281C29.2415 20.8182 30.3702 20.7141 31.6814 20.5931L31.6844 20.5929C32.5392 20.5138 33.5081 20.4245 34.5666 20.3489L34.5666 20.3489C36.1118 20.2376 37.3931 20.677 38.3776 21.6499C39.3445 22.6057 39.9155 23.9537 40.2521 25.2117C40.5805 26.4392 40.6844 27.5758 40.7173 28.1672C38.6793 28.6316 37.3079 27.7199 36.4336 26.6588C35.552 25.5889 35.1796 24.3704 35.1499 24.2692C35.0916 24.0688 34.9295 23.9189 34.7302 23.8854L34.7302 23.8853C34.529 23.8518 34.3313 23.9416 34.2163 24.1142L34.2163 24.1142C31.5778 28.075 27.2686 28.9097 25.5356 29.0846C24.4015 29.1988 23.306 29.146 22.3803 28.9546C21.4567 28.7637 20.7075 28.4359 20.2556 28.0037C18.8003 25.5109 18.3411 23.1697 18.8821 21.0425ZM16.5016 32.5601C16.5016 30.8251 17.7105 29.3895 19.2807 29.1269V32.5601C19.2807 33.7687 19.4385 34.9368 19.7286 36.0429C17.9454 36.0045 16.5016 34.4594 16.5016 32.5601ZM30.5341 43.9457C24.9138 43.9457 20.3323 38.8436 20.3323 32.5605V29.3872C21.3336 29.9466 22.7369 30.2516 24.3194 30.2516C24.7465 30.2516 25.1872 30.2295 25.6363 30.1841C27.3927 30.0069 31.6104 29.1991 34.5127 25.5262C34.8702 26.2972 35.5068 27.3985 36.4985 28.2297C37.5134 29.0803 38.8997 29.6472 40.7331 29.2888V32.5605C40.7331 38.8433 36.1528 43.9457 30.5341 43.9457ZM44.4981 32.5601C44.4981 34.4356 43.0898 35.9632 41.338 36.0382C41.6273 34.9335 41.7847 33.7671 41.7847 32.5601V29.1382C43.3226 29.4281 44.4981 30.8484 44.4981 32.5601Z" fill="#3366FF" stroke="#3366FF" stroke-width="0.1"/>
</svg>
