<svg width="61" height="60" viewBox="0 0 61 60" fill="none" xmlns="http://www.w3.org/2000/svg">
<path d="M36.125 26.25H45.5" stroke="#3366FF" stroke-linecap="round" stroke-linejoin="round"/>
<path d="M36.125 33.75H45.5" stroke="#3366FF" stroke-linecap="round" stroke-linejoin="round"/>
<path d="M22.0859 33.75C25.1925 33.75 27.7109 31.2316 27.7109 28.125C27.7109 25.0184 25.1925 22.5 22.0859 22.5C18.9793 22.5 16.4609 25.0184 16.4609 28.125C16.4609 31.2316 18.9793 33.75 22.0859 33.75Z" stroke="#3366FF" stroke-linecap="round" stroke-linejoin="round"/>
<path d="M14.8242 39.3749C15.2404 37.7649 16.1796 36.3389 17.4943 35.3207C18.809 34.3026 20.4248 33.7501 22.0876 33.75C23.7505 33.7499 25.3663 34.3023 26.6811 35.3204C27.9959 36.3384 28.9352 37.7645 29.3515 39.3744" stroke="#3366FF" stroke-linecap="round" stroke-linejoin="round"/>
<path d="M51.125 11.25H9.875C8.83947 11.25 8 12.0895 8 13.125V46.875C8 47.9105 8.83947 48.75 9.875 48.75H51.125C52.1605 48.75 53 47.9105 53 46.875V13.125C53 12.0895 52.1605 11.25 51.125 11.25Z" stroke="#3366FF" stroke-linecap="round" stroke-linejoin="round"/>
</svg>
