<svg width="16" height="16" viewBox="0 0 16 16" fill="none" xmlns="http://www.w3.org/2000/svg">
<path d="M8 11C10.7614 11 13 8.76142 13 6C13 3.23858 10.7614 1 8 1C5.23858 1 3 3.23858 3 6C3 8.76142 5.23858 11 8 11Z" stroke="#3366FF" stroke-linecap="round" stroke-linejoin="round"/>
<path d="M8 9C9.65685 9 11 7.65685 11 6C11 4.34315 9.65685 3 8 3C6.34315 3 5 4.34315 5 6C5 7.65685 6.34315 9 8 9Z" stroke="#3366FF" stroke-linecap="round" stroke-linejoin="round"/>
<path d="M11 10V15.0003L7.99956 13.5003L5 15.0003V10.0004" stroke="#3366FF" stroke-linecap="round" stroke-linejoin="round"/>
</svg>
