<svg width="24" height="24" viewBox="0 0 24 24" fill="none" xmlns="http://www.w3.org/2000/svg">
<path d="M12 21C16.9706 21 21 16.9706 21 12C21 7.02944 16.9706 3 12 3C7.02944 3 3 7.02944 3 12C3 16.9706 7.02944 21 12 21Z" stroke="black" stroke-miterlimit="10"/>
<path d="M20.0779 15.9724L14.9885 12.8422C14.8993 12.7874 14.7996 12.7518 14.6958 12.7378L12.5566 12.4494C12.3959 12.4278 12.2326 12.4587 12.091 12.5377C11.9495 12.6166 11.8373 12.7393 11.7713 12.8874L10.4871 15.7691C10.4273 15.9031 10.4082 16.0517 10.4321 16.1965C10.456 16.3412 10.5218 16.4758 10.6214 16.5835L12.3839 18.4899C12.4638 18.5763 12.5222 18.6804 12.5545 18.7936C12.5868 18.9067 12.5919 19.0259 12.5696 19.1415L12.2105 20.9974" stroke="black" stroke-linecap="round" stroke-linejoin="round"/>
<path d="M6.08916 5.21307L5.25064 7.19586C5.17587 7.37265 5.17174 7.57138 5.23909 7.75113L6.31635 10.6263C6.36047 10.744 6.43347 10.8488 6.52866 10.9309C6.62384 11.0131 6.73815 11.07 6.86108 11.0964L8.87013 11.5282C8.98161 11.5521 9.08616 11.6012 9.17583 11.6716C9.2655 11.7421 9.33792 11.832 9.3876 11.9347L9.74438 12.6717C9.80578 12.7986 9.90167 12.9056 10.0211 12.9804C10.1405 13.0553 10.2785 13.095 10.4195 13.095H11.6788" stroke="black" stroke-linecap="round" stroke-linejoin="round"/>
<path d="M14.293 3.29517L15.168 4.86252C15.2508 5.01068 15.2808 5.18253 15.2532 5.34997C15.2256 5.51741 15.1421 5.67055 15.0162 5.78437L12.4933 8.06602C12.4505 8.10474 12.4034 8.13839 12.3528 8.1663L11.2052 8.80008C11.0942 8.86139 10.9694 8.89354 10.8426 8.89354H8.84149C8.69391 8.89354 8.54962 8.93708 8.42667 9.0187C8.30373 9.10031 8.20759 9.21639 8.1503 9.35239L7.36963 11.2057" stroke="black" stroke-linecap="round" stroke-linejoin="round"/>
</svg>
