<svg width="101" height="62" viewBox="0 0 101 62" fill="none" xmlns="http://www.w3.org/2000/svg">
<path d="M80.9682 37.7398L80.5584 36.8654L80.3854 34.8939L45.5766 12.4594L43.6244 11.1805L43.091 10.9807C41.1947 10.2701 39.2018 9.85098 37.1799 9.7375L31.6555 9.42715C30.9318 9.38652 30.2061 9.37754 29.483 9.42402C28.1791 9.50781 26.8699 9.28984 25.6586 8.78301L21.6588 7.10938L20.5477 7.89902L11.3359 30.7691L11.8488 31.9744L19.6039 36.8652L22.0582 38.5902L23.6113 38.6248L47.8232 55.7187L48.0529 57.29L51.3836 59.748C53.2332 61.1131 55.8398 60.9564 57.4281 59.2945C58.9738 57.6773 59.0658 55.2426 57.8303 53.5262L59.5004 54.7588C61.4049 56.1644 64.1025 55.9486 65.668 54.1732C67.1844 52.4537 67.1459 49.9305 65.7301 48.2592L66.6682 48.9514C68.4844 50.2916 71.0367 50.1701 72.6346 48.576C74.3334 46.8813 74.3783 44.226 72.9174 42.476L74.326 43.5156C76.2949 44.9688 79.0676 44.5957 80.5807 42.6596C81.7154 41.2074 81.7844 39.277 80.9682 37.7398Z" fill="#F1AFA2"/>
<path d="M12.9988 26.6406L11.3359 30.7695L11.8488 31.9748L19.6039 36.8656L22.0582 38.5906L23.6113 38.6252L47.8232 55.7191L48.0529 57.2904L51.3836 59.7484C53.2332 61.1135 55.8398 60.9568 57.4281 59.2949C57.5629 59.1539 57.6824 59.0049 57.7951 58.8525L12.9988 26.6406Z" fill="#E99C8C"/>
<path d="M0.610169 27.8451L10.9283 1.69083C11.2469 0.883216 12.16 0.486732 12.9676 0.805482L21.1779 4.04454C21.9856 4.3631 22.382 5.27618 22.0635 6.0838L11.7451 32.2381C11.4266 33.0457 10.5135 33.4422 9.70587 33.1234L1.49552 29.8846C0.687904 29.5658 0.291419 28.6529 0.610169 27.8451Z" fill="#CED8F7"/>
<path d="M5.98623 30.3356L16.5116 3.65577C16.7202 3.12725 17.1784 2.77276 17.6976 2.67139L12.9675 0.805377C12.1599 0.486822 11.2468 0.883306 10.9282 1.69073L0.610062 27.8452C0.291507 28.653 0.687991 29.5659 1.49561 29.8847L6.06905 31.6888C5.85088 31.2866 5.80518 30.7946 5.98623 30.3356Z" fill="#3366FF"/>
<path d="M21.9563 44.8755C20.2759 43.4507 20.0686 40.9333 21.4934 39.2528L25.2237 34.8743C26.6485 33.1938 29.1659 32.9866 30.8464 34.4114C32.5268 35.8362 32.7341 38.3536 31.3093 40.0341L27.579 44.4126C26.1542 46.0931 23.6368 46.3003 21.9563 44.8755Z" fill="#FFDECF"/>
<path d="M28.0423 50.0356C26.3618 48.6108 26.1546 46.0934 27.5794 44.413L31.3096 40.0345C32.7345 38.354 35.2518 38.1468 36.9323 39.5716C38.6128 40.9964 38.82 43.5138 37.3952 45.1942L33.6649 49.5727C32.2401 51.2534 29.7227 51.4606 28.0423 50.0356Z" fill="#FFDECF"/>
<path d="M34.1282 55.1958C32.4477 53.771 32.2405 51.2536 33.6653 49.5731L37.3956 45.1946C38.8204 43.5141 41.3378 43.3069 43.0182 44.7317C44.6987 46.1565 44.9059 48.6739 43.4811 50.3544L39.7509 54.7329C38.3261 56.4136 35.8087 56.6206 34.1282 55.1958Z" fill="#FFDECF"/>
<path d="M40.2141 60.3559C38.5337 58.9311 38.3264 56.4138 39.7513 54.7333L43.4815 50.3548C44.9063 48.6743 47.4237 48.4671 49.1042 49.8919C50.7847 51.3167 50.9919 53.8341 49.5671 55.5145L45.8368 59.893C44.412 61.5735 41.8946 61.7807 40.2141 60.3559Z" fill="#FFDECF"/>
<path d="M25.6183 39.8899L29.3485 35.5114C29.7698 35.0145 30.2878 34.6501 30.8501 34.4149C30.8487 34.4138 30.8478 34.4126 30.8464 34.4114C29.1659 32.9866 26.6485 33.1938 25.2237 34.8743L21.4935 39.2528C20.0687 40.9333 20.2759 43.4507 21.9562 44.8755C23.1397 45.8792 24.7374 46.0694 26.0772 45.5093C24.4005 44.0837 24.1944 41.569 25.6183 39.8899Z" fill="#FFCEBE"/>
<path d="M31.7042 45.0501L35.4345 40.6715C35.8557 40.1747 36.3737 39.8102 36.936 39.575C36.9347 39.5739 36.9337 39.5727 36.9323 39.5717C35.2518 38.1467 32.7345 38.354 31.3096 40.0344L27.5794 44.4129C26.1546 46.0934 26.3618 48.6108 28.0423 50.0356C29.2259 51.0393 30.8235 51.2295 32.1634 50.6694C30.4864 49.2438 30.2804 46.7292 31.7042 45.0501Z" fill="#FFCEBE"/>
<path d="M37.7901 50.2103L41.5204 45.8317C41.9417 45.3349 42.4597 44.9704 43.022 44.7353C43.0206 44.7341 43.0196 44.7329 43.0183 44.7317C41.3378 43.3069 38.8204 43.5142 37.3956 45.1944L33.6653 49.5731C32.2405 51.2536 32.4478 53.771 34.128 55.1958C35.3116 56.1993 36.9093 56.3897 38.2491 55.8294C36.5724 54.404 36.3663 51.8894 37.7901 50.2103Z" fill="#FFCEBE"/>
<path d="M43.8761 55.3704L47.6063 50.9919C48.0276 50.495 48.5456 50.1306 49.1079 49.8954C49.1065 49.8942 49.1056 49.8931 49.1042 49.8919C47.4237 48.4671 44.9063 48.6743 43.4815 50.3546L39.7513 54.7331C38.3265 56.4136 38.5337 58.931 40.214 60.3558C41.3976 61.3593 42.9952 61.5497 44.3351 60.9896C42.6583 59.5642 42.4522 57.0495 43.8761 55.3704Z" fill="#FFCEBE"/>
<path d="M80.8232 7.96491L79.3687 7.17604L73.5427 9.32663C71.9271 9.92312 70.1853 10.0946 68.4843 9.82507L51.3095 7.1028C49.3718 6.79558 47.4025 7.43718 46.0232 8.83249C43.181 11.7077 37.8171 16.785 31.948 20.552C30.6367 21.3936 30.4421 23.2432 31.5716 24.3165C33.9203 26.5481 38.7578 28.4712 47.1113 20.9686C47.8806 20.2776 49.0607 20.3061 49.7757 21.053C52.2111 23.5958 58.198 28.4895 67.1306 26.9534L80.5605 36.8647L88.9543 31.4733L89.3664 30.5673L80.8232 7.96491Z" fill="#FFDECF"/>
<path d="M34.2388 24.7462C40.108 20.979 45.4718 15.9018 48.314 13.0266C49.6933 11.6313 51.6626 10.9897 53.6003 11.2969L70.7751 14.0192C72.4761 14.2887 74.2179 14.1173 75.8335 13.5208L81.6595 11.3702L82.2265 11.6776L80.8232 7.96491L79.3687 7.17604L73.5427 9.32663C71.9271 9.92311 70.1853 10.0946 68.4843 9.82507L51.3095 7.1028C49.3718 6.79558 47.4025 7.43717 46.0232 8.83249C43.181 11.7077 37.8171 16.785 31.948 20.552C30.6367 21.3936 30.4421 23.2432 31.5716 24.3165C32.0732 24.793 32.6888 25.2553 33.4275 25.6149C33.6148 25.2757 33.8845 24.9735 34.2388 24.7462Z" fill="#FFCEBE"/>
<path d="M100.392 27.8451L90.0733 1.69083C89.7548 0.883216 88.8417 0.486732 88.0341 0.805482L79.8237 4.04454C79.0161 4.3631 78.6196 5.27618 78.9382 6.0838L89.2564 32.2383C89.5749 33.0459 90.488 33.4424 91.2956 33.1236L99.506 29.8846C100.314 29.5658 100.71 28.6529 100.392 27.8451Z" fill="#B16E3D"/>
<path d="M95.2571 30.7979L84.453 3.41133C84.2958 3.0125 84.3067 2.58984 84.4491 2.21875L79.8237 4.04356C79.0161 4.36211 78.6196 5.2752 78.9382 6.08281L89.2563 32.2373C89.5749 33.0449 90.488 33.4414 91.2956 33.1227L95.6681 31.3977C95.4937 31.2355 95.3505 31.0344 95.2571 30.7979Z" fill="#985E33"/>
<path d="M65.4863 54.3592L56.3647 47.2998C55.486 46.6197 54.2221 46.7809 53.542 47.6596C52.8619 48.5385 53.0231 49.8022 53.9018 50.4822L57.84 53.5301L59.502 54.7567C61.3354 56.1098 63.9006 55.9559 65.4863 54.3592Z" fill="#E99C8C"/>
<path d="M60.0663 41.3549C59.3884 42.2356 59.5527 43.4988 60.4331 44.1768L65.8054 48.3129L66.6696 48.9506C68.4859 50.2908 71.0382 50.1694 72.6361 48.5752C72.6517 48.5596 72.6648 48.5426 72.68 48.527L62.8882 40.9883C62.0077 40.3102 60.7443 40.4746 60.0663 41.3549Z" fill="#E99C8C"/>
<path d="M69.4784 34.7424C68.5984 34.0645 67.3349 34.228 66.6566 35.1082C65.9784 35.9885 66.1421 37.2518 67.0224 37.9301L72.9796 42.5203L74.3261 43.5141C76.1577 44.8659 78.6833 44.6354 80.245 43.0383L69.4784 34.7424Z" fill="#E99C8C"/>
</svg>
