<svg width="101" height="100" viewBox="0 0 101 100" fill="none" xmlns="http://www.w3.org/2000/svg">
<path d="M50.4992 3.44922C40.9647 3.44922 33.2578 6.91474 33.2578 11.2078V23.2768C33.2578 27.5699 40.9647 31.0354 50.4992 31.0354C60.0337 31.0354 67.7406 27.5699 67.7406 23.2768V11.2078C67.7406 6.91474 60.0337 3.44922 50.4992 3.44922Z" fill="#464F5D"/>
<path d="M96.1379 72.5845L91.8793 73.9638L84.9828 76.2225L78.0862 78.4638L71.1897 80.7225L63.6552 83.1707C61.3353 83.9388 58.7947 82.9744 57.569 80.8604L56.5517 79.2052L50.5 89.2914L54.5345 96.0156C55.9733 98.4801 58.6117 99.9962 61.4655 99.9983C62.0874 100 62.7071 99.9251 63.3103 99.7742L71.1897 97.4638L78.0862 95.4466L84.9828 93.4293L91.8793 91.4121L97.8621 89.6535C99.439 89.2727 100.537 87.8443 100.5 86.2225V75.8259C100.474 74.7648 99.9614 73.7746 99.1094 73.1415C98.2574 72.5084 97.1614 72.3029 96.1379 72.5845Z" fill="#A59078"/>
<path d="M24.1227 26.6207L20.1399 20.1724L16.1744 13.7242L12.1916 7.25865L9.12267 2.29313C8.29526 0.86854 6.7701 -0.00579444 5.12267 2.89085e-05C4.53794 -0.00146876 3.9584 0.109755 3.41577 0.327615C2.17399 0.824519 1.20844 1.83513 0.768654 3.09827C0.328868 4.36141 0.457996 5.75315 1.12267 6.91382L4.00198 11.7242L7.89853 18.2242L11.7951 24.7242L15.6916 31.2242L44.4503 79.2069L50.502 69.3966L24.1227 26.6207Z" fill="#A59078"/>
<path d="M97.5871 0.327615C97.0445 0.109755 96.465 -0.00146876 95.8802 2.89085e-05C94.2328 -0.00579444 92.7076 0.86854 91.8802 2.29313L88.8113 7.25865L84.8285 13.7242L80.863 20.1724L76.8802 26.6207L50.5009 69.3966L44.4492 79.2069L43.4319 80.8621C42.2062 82.9762 39.6656 83.9406 37.3457 83.1724L29.8113 80.7242L22.9147 78.4655L16.0182 76.2242L9.12161 73.9655L4.86299 72.5862C3.83956 72.3046 2.74348 72.5101 1.89149 73.1432C1.03951 73.7763 0.526571 74.7665 0.500918 75.8276V86.2242C0.463702 87.846 1.56195 89.2744 3.13885 89.6552L9.12161 91.4138L16.0182 93.4311L22.9147 95.4483L29.8113 97.4655L37.6906 99.7759C38.2938 99.9268 38.9135 100.002 39.5354 100C42.3892 99.9979 45.0276 98.4818 46.4664 96.0173L50.5009 89.2931L56.5526 79.2069L85.3113 31.2242L89.2078 24.7242L93.1044 18.2242L97.0009 11.7242L99.8802 6.91382C100.545 5.75315 100.674 4.36141 100.234 3.09827C99.7945 1.83513 98.8289 0.824519 97.5871 0.327615Z" fill="#CBB292"/>
<path d="M9.12161 73.9638V91.4121L3.13885 89.6535C1.56195 89.2727 0.463702 87.8443 0.500918 86.2225V75.8259C0.526571 74.7648 1.03951 73.7746 1.89149 73.1415C2.74348 72.5084 3.83956 72.3029 4.86299 72.5845L9.12161 73.9638Z" fill="#1939B7"/>
<path d="M16.0176 76.2235V93.4304L9.12109 91.4131V73.9648L16.0176 76.2235Z" fill="#3366FF"/>
<path d="M22.9161 78.464V95.4468L16.0195 93.4296V76.2227L22.9161 78.464Z" fill="#1939B7"/>
<path d="M29.8106 80.7235V97.4648L22.9141 95.4476V78.4648L29.8106 80.7235Z" fill="#3366FF"/>
<path d="M89.2065 24.7236L85.3099 31.2236L76.8789 26.6202L80.8617 20.1719L89.2065 24.7236Z" fill="#3366FF"/>
<path d="M97.0005 11.7233L93.104 18.2233L84.8281 13.7233L88.8109 7.25781L97.0005 11.7233Z" fill="#3366FF"/>
<path d="M84.8288 13.7227L93.1047 18.2227L89.2081 24.7227L80.8633 20.1709L84.8288 13.7227Z" fill="#1939B7"/>
<path d="M99.8815 6.91382L97.0022 11.7242L88.8125 7.25865L91.8815 2.29313C92.7089 0.86854 94.234 -0.00579444 95.8815 2.89085e-05C96.4662 -0.00146876 97.0457 0.109755 97.5884 0.327615C98.8301 0.824519 99.7957 1.83513 100.235 3.09827C100.675 4.36141 100.546 5.75315 99.8815 6.91382Z" fill="#1939B7"/>
<path d="M100.5 75.8259V86.2225C100.537 87.8443 99.4386 89.2727 97.8617 89.6535L91.8789 91.4121V73.9638L96.1375 72.5845C97.161 72.3029 98.257 72.5084 99.109 73.1415C99.961 73.7746 100.474 74.7648 100.5 75.8259Z" fill="#FF4D35"/>
<path d="M91.8809 73.9648V91.4131L84.9844 93.4304V76.2235L91.8809 73.9648Z" fill="#C03A2B"/>
<path d="M84.9825 76.2227V93.4296L78.0859 95.4468V78.464L84.9825 76.2227Z" fill="#FF4D35"/>
<path d="M78.088 78.4648V95.4476L71.1914 97.4648V80.7235L78.088 78.4648Z" fill="#C03A2B"/>
<path d="M24.1206 26.6202L15.6895 31.2236L11.793 24.7236L20.1378 20.1719L24.1206 26.6202Z" fill="#C03A2B"/>
<path d="M20.1398 20.1709L11.795 24.7227L7.89844 18.2227L16.1743 13.7227L20.1398 20.1709Z" fill="#FF4D35"/>
<path d="M16.1724 13.7233L7.89655 18.2233L4 11.7233L12.1897 7.25781L16.1724 13.7233Z" fill="#C03A2B"/>
<path d="M12.1916 7.25865L4.00198 11.7242L1.12267 6.91382C0.457996 5.75315 0.328868 4.36141 0.768654 3.09827C1.20844 1.83513 2.17399 0.824519 3.41577 0.327615C3.9584 0.109755 4.53794 -0.00146876 5.12267 2.89085e-05C6.7701 -0.00579444 8.29526 0.86854 9.12267 2.29313L12.1916 7.25865Z" fill="#FF4D35"/>
<path d="M67.7406 11.2078C67.7406 14.2078 63.9475 16.8113 58.413 18.1044C55.8163 18.6909 53.1613 18.9801 50.4992 18.9665C47.8371 18.9801 45.1821 18.6909 42.5854 18.1044C37.0509 16.8113 33.2578 14.2078 33.2578 11.2078C33.2578 6.91474 40.9647 3.44922 50.4992 3.44922C60.0337 3.44922 67.7406 6.91474 67.7406 11.2078Z" fill="#7F8284"/>
<path d="M28.0898 6.89617C27.8229 6.89615 27.5596 6.83418 27.3208 6.71513L23.8725 4.99099C23.0203 4.56535 22.6745 3.52943 23.1001 2.6772C23.5257 1.82497 24.5617 1.47915 25.4139 1.90479L28.8622 3.62893C29.5788 3.98607 29.9552 4.78953 29.771 5.5687C29.5868 6.34788 28.8904 6.89772 28.0898 6.89617Z" fill="#F3D55B"/>
<path d="M26.3638 13.792H22.9155C21.9633 13.792 21.1914 13.0201 21.1914 12.0679C21.1914 11.1157 21.9633 10.3438 22.9155 10.3438H26.3638C27.316 10.3438 28.088 11.1157 28.088 12.0679C28.088 13.0201 27.316 13.792 26.3638 13.792Z" fill="#F3D55B"/>
<path d="M72.9152 6.89617C72.1145 6.89772 71.4181 6.34788 71.2339 5.5687C71.0497 4.78953 71.4261 3.98607 72.1427 3.62893L75.591 1.90479C76.4432 1.47915 77.4792 1.82497 77.9048 2.6772C78.3304 3.52943 77.9846 4.56535 77.1324 4.99099L73.6841 6.71513C73.4453 6.83418 73.182 6.89615 72.9152 6.89617Z" fill="#F3D55B"/>
<path d="M78.0865 13.792H74.6382C73.686 13.792 72.9141 13.0201 72.9141 12.0679C72.9141 11.1157 73.686 10.3438 74.6382 10.3438H78.0865C79.0387 10.3438 79.8106 11.1157 79.8106 12.0679C79.8106 13.0201 79.0387 13.792 78.0865 13.792Z" fill="#F3D55B"/>
</svg>
