<svg width="24" height="24" viewBox="0 0 24 24" fill="none" xmlns="http://www.w3.org/2000/svg">
<path d="M10.6414 17.0712C13.442 17.8216 16.3208 16.1596 17.0713 13.3589C17.8217 10.5582 16.1596 7.67939 13.359 6.92894C10.5583 6.1785 7.67949 7.84056 6.92904 10.6413C6.1786 13.442 7.84066 16.3207 10.6414 17.0712Z" stroke="black" stroke-linecap="round" stroke-linejoin="round"/>
<path d="M20.163 13.4109L21.4715 12.261C21.5565 12.1871 21.6242 12.0954 21.6697 11.9924C21.7153 11.8894 21.7376 11.7776 21.7351 11.665C21.7144 11.038 21.6327 10.4145 21.4913 9.80333C21.4646 9.69414 21.4142 9.59217 21.3436 9.50472C21.273 9.41727 21.1839 9.34648 21.0828 9.29742L19.5198 8.52455L18.7698 7.22553L18.882 5.48541C18.8901 5.37329 18.8733 5.26078 18.8329 5.15589C18.7924 5.05101 18.7293 4.95635 18.6481 4.87867C18.1895 4.45061 17.6903 4.06816 17.1577 3.73673C17.0614 3.67828 16.9534 3.64173 16.8415 3.62968C16.7295 3.61764 16.6162 3.63039 16.5097 3.66705L14.8597 4.22522L13.4108 3.83699L12.261 2.5286C12.1871 2.44361 12.0954 2.37594 11.9924 2.33038C11.8894 2.28482 11.7776 2.2625 11.665 2.26499C11.038 2.28569 10.4145 2.36731 9.80332 2.50871C9.69411 2.53536 9.59213 2.58579 9.50467 2.65641C9.41721 2.72703 9.34642 2.81609 9.29736 2.91723L8.52458 4.48024L7.22545 5.23029L5.48544 5.11802C5.37333 5.10994 5.26081 5.12672 5.15593 5.16715C5.05105 5.20758 4.95638 5.27067 4.8787 5.35192C4.4506 5.81053 4.06811 6.30969 3.73666 6.84235C3.6782 6.93862 3.64166 7.04657 3.62962 7.15854C3.61758 7.27052 3.63034 7.38377 3.66699 7.49026L4.22517 9.14027L3.83694 10.5892L2.52853 11.739C2.44355 11.8129 2.37588 11.9046 2.33032 12.0076C2.28476 12.1106 2.26244 12.2224 2.26493 12.335C2.2856 12.962 2.36722 13.5855 2.50863 14.1967C2.53529 14.3059 2.58572 14.4079 2.65634 14.4953C2.72695 14.5828 2.81601 14.6536 2.91714 14.7026L4.48025 15.4755L5.23023 16.7745L5.11795 18.5147C5.10987 18.6268 5.12664 18.7393 5.16707 18.8442C5.2075 18.9491 5.27059 19.0437 5.35183 19.1214C5.81041 19.5495 6.30956 19.9319 6.84223 20.2633C6.93849 20.3218 7.04643 20.3583 7.1584 20.3704C7.27037 20.3824 7.38361 20.3697 7.4901 20.333L9.14021 19.7748L10.5891 20.1631L11.739 21.4716C11.8129 21.5566 11.9046 21.6242 12.0076 21.6698C12.1106 21.7153 12.2224 21.7377 12.335 21.7352C12.962 21.7145 13.5855 21.6329 14.1966 21.4915C14.3058 21.4648 14.4078 21.4144 14.4953 21.3438C14.5827 21.2731 14.6535 21.1841 14.7026 21.083L15.4755 19.5198L16.7745 18.7698L18.5146 18.8821C18.6267 18.8901 18.7392 18.8734 18.8441 18.8329C18.949 18.7925 19.0437 18.7294 19.1213 18.6482C19.5494 18.1896 19.9319 17.6905 20.2633 17.1578C20.3218 17.0616 20.3583 16.9536 20.3704 16.8416C20.3824 16.7296 20.3697 16.6164 20.333 16.5099L19.7748 14.8598L20.163 13.4109Z" stroke="black" stroke-linecap="round" stroke-linejoin="round"/>
</svg>
