<svg width="24" height="24" viewBox="0 0 24 24" fill="none" xmlns="http://www.w3.org/2000/svg">
<path d="M9 20.25H4.5C4.30109 20.25 4.11032 20.171 3.96967 20.0303C3.82902 19.8897 3.75 19.6989 3.75 19.5V15.3107C3.75 15.2122 3.7694 15.1146 3.80709 15.0236C3.84478 14.9327 3.90003 14.85 3.96967 14.7803L15.2197 3.53033C15.3603 3.38968 15.5511 3.31066 15.75 3.31066C15.9489 3.31066 16.1397 3.38968 16.2803 3.53033L20.4697 7.71967C20.6103 7.86032 20.6893 8.05109 20.6893 8.25C20.6893 8.44891 20.6103 8.63968 20.4697 8.78033L9 20.25Z" stroke="black" stroke-linecap="round" stroke-linejoin="round"/>
<path d="M12.75 6L18 11.25" stroke="black" stroke-linecap="round" stroke-linejoin="round"/>
</svg>
