<svg width="100" height="100" viewBox="0 0 100 100" fill="none" xmlns="http://www.w3.org/2000/svg">
<g clip-path="url(#clip0_762_31264)">
<path d="M93.7665 43.766C93.7665 19.489 74.0001 -0.171335 49.6833 0.00112601C25.5879 0.171829 6.02955 20.0539 6.23599 44.149C6.40592 63.9834 19.7708 80.6673 37.9801 85.8576C39.6272 86.3271 41.0348 87.4033 41.8903 88.8869L47.4479 98.5253C48.5817 100.492 51.4192 100.492 52.553 98.5253L58.1106 88.8867C58.9657 87.4037 60.3723 86.3273 62.0186 85.8582C80.346 80.6353 93.7665 63.7691 93.7665 43.766V43.766Z" fill="#5490F9"/>
<path d="M49.6844 0.00112348C48.2199 0.011475 46.7727 0.0960454 45.3451 0.248584C67.3254 2.57515 84.452 21.1689 84.452 43.7662C84.452 63.7693 71.0314 80.6353 52.7041 85.8582C51.0578 86.3273 49.6512 87.4037 48.7961 88.8867L45.3438 94.8742L47.449 98.5253C48.5828 100.492 51.4205 100.492 52.5541 98.5253L58.1117 88.8867C58.9668 87.4037 60.3734 86.3273 62.0197 85.8582C80.3471 80.6353 93.7676 63.7693 93.7676 43.7662C93.7676 19.489 74.0012 -0.171142 49.6844 0.00112348V0.00112348Z" fill="#3366FF"/>
<path d="M50.8649 50.4834H49.1352C46.8883 50.4834 45.0323 48.7289 44.9061 46.4855L43.6782 24.6682C43.4739 21.0371 46.3631 17.9805 50 17.9805C53.637 17.9805 56.5262 21.0371 56.3219 24.6682L55.094 46.4855C54.9678 48.7289 53.1118 50.4834 50.8649 50.4834Z" fill="#F1F1F4"/>
<path d="M49.999 17.9805C49.4154 17.9805 48.8518 18.06 48.3164 18.207C51.1178 18.9768 53.1273 21.6195 52.9557 24.668L51.7277 46.4854C51.6172 48.4496 50.1805 50.0389 48.3164 50.4039C48.5813 50.4559 48.8547 50.4832 49.1342 50.4832H50.8639C53.1107 50.4832 54.9668 48.7287 55.093 46.4854L56.3209 24.668C56.5252 21.0371 53.6359 17.9805 49.999 17.9805Z" fill="#E2DFE2"/>
<path d="M51.373 65.8932H48.6283C46.8467 65.8932 45.4023 64.4488 45.4023 62.6672V60.4564C45.4023 58.6748 46.8467 57.2305 48.6283 57.2305H51.373C53.1547 57.2305 54.599 58.6748 54.599 60.4564V62.6672C54.599 64.4488 53.1547 65.8932 51.373 65.8932Z" fill="#F1F1F4"/>
<path d="M51.3715 57.2305H48.6268C48.5221 57.2305 48.4187 57.2363 48.3164 57.2461C49.9523 57.4023 51.232 58.7795 51.232 60.4564V62.6672C51.232 64.3439 49.9523 65.7211 48.3164 65.8773C48.4186 65.8871 48.5219 65.893 48.6268 65.893H51.3715C53.1531 65.893 54.5973 64.4486 54.5973 62.667V60.4562C54.5975 58.6748 53.1531 57.2305 51.3715 57.2305V57.2305Z" fill="#E2DFE2"/>
</g>
<defs>
<clipPath id="clip0_762_31264">
<rect width="100" height="100" fill="white"/>
</clipPath>
</defs>
</svg>
