<svg width="63" height="63" viewBox="0 0 63 63" fill="none" xmlns="http://www.w3.org/2000/svg">
<path d="M0 9.5445C0 4.27322 4.27322 0 9.5445 0H52.4948C57.766 0 62.0393 4.27322 62.0393 9.5445V52.4948C62.0393 57.766 57.766 62.0393 52.4948 62.0393H9.5445C4.27322 62.0393 0 57.766 0 52.4948V9.5445Z" fill="#3366FF"/>
<path d="M13.6296 48.927C12.8986 48.927 12.2838 48.7119 11.7854 48.2816C11.3201 47.8206 11.0875 47.252 11.0875 46.5759V26.0608C11.0875 25.3539 11.3201 24.7853 11.7854 24.355C12.2838 23.9247 12.8986 23.7096 13.6296 23.7096C14.3939 23.7096 15.0087 23.9247 15.4739 24.355C15.9391 24.7853 16.1717 25.3539 16.1717 26.0608V46.5759C16.1717 47.252 15.9391 47.8206 15.4739 48.2816C15.0087 48.7119 14.3939 48.927 13.6296 48.927ZM13.6296 19.6066C12.7324 19.6066 11.9515 19.3146 11.2869 18.7306C10.6555 18.116 10.3398 17.3937 10.3398 16.5639C10.3398 15.7341 10.6555 15.0272 11.2869 14.4432C11.9515 13.8285 12.7324 13.5212 13.6296 13.5212C14.5268 13.5212 15.2911 13.8285 15.9225 14.4432C16.5871 15.0272 16.9194 15.7341 16.9194 16.5639C16.9194 17.3937 16.5871 18.116 15.9225 18.7306C15.2911 19.3146 14.5268 19.6066 13.6296 19.6066Z" fill="white"/>
<path d="M37.9919 49.1114C35.3999 49.1114 33.0572 48.5582 30.9637 47.4518C28.9034 46.3146 27.2586 44.7779 26.029 42.8417C24.8327 40.9054 24.2346 38.7233 24.2346 36.2953C24.2346 33.8673 24.7829 31.7005 25.8795 29.795C27.0093 27.8587 28.5379 26.3374 30.4653 25.2309C32.3926 24.0938 34.5692 23.5252 36.995 23.5252C38.9556 23.5252 40.7666 23.9094 42.4281 24.6777C44.0896 25.4153 45.4853 26.4296 46.6151 27.7204V15.273C46.6151 14.5662 46.8477 13.9976 47.313 13.5673C47.8114 13.137 48.4262 12.9219 49.1572 12.9219C49.9215 12.9219 50.5363 13.137 51.0015 13.5673C51.4667 13.9976 51.6994 14.5662 51.6994 15.273V36.2953C51.6994 38.7233 51.0846 40.9054 49.8551 42.8417C48.6588 44.7779 47.0305 46.3146 44.9702 47.4518C42.91 48.5582 40.5839 49.1114 37.9919 49.1114ZM37.9919 44.9623C39.6866 44.9623 41.1986 44.5935 42.5278 43.8559C43.857 43.0875 44.9038 42.0426 45.6681 40.721C46.4324 39.3994 46.8145 37.9242 46.8145 36.2953C46.8145 34.6356 46.4324 33.1604 45.6681 31.8695C44.9038 30.5787 43.857 29.5645 42.5278 28.8268C41.1986 28.0585 39.6866 27.6743 37.9919 27.6743C36.3304 27.6743 34.8184 28.0585 33.456 28.8268C32.1268 29.5645 31.0634 30.5787 30.2659 31.8695C29.5016 33.1604 29.1194 34.6356 29.1194 36.2953C29.1194 37.9242 29.5016 39.3994 30.2659 40.721C31.0634 42.0426 32.1268 43.0875 33.456 43.8559C34.8184 44.5935 36.3304 44.9623 37.9919 44.9623Z" fill="white"/>
</svg>
