<svg width="100" height="100" viewBox="0 0 100 100" fill="none" xmlns="http://www.w3.org/2000/svg">
<g clip-path="url(#clip0_566_11372)">
<path d="M23.4383 66.2543V97.0676C23.4383 99.875 27.0281 101.071 28.7111 98.8242L43.7629 78.76L48.3512 76.409L98.0318 6.16523L98.9559 0.703125L90.8838 5.16387L23.4219 63.7273L23.4383 66.2543Z" fill="#FE9923"/>
<path d="M95.9447 0.233627C95.8125 0.286557 1.74472 47.516 1.61699 47.5801C-0.434378 48.6057 -0.560549 51.4911 1.39101 52.6955L23.4352 66.2625L98.9527 0.711361C98.185 0.0461271 97.0824 -0.237857 95.9447 0.233627Z" fill="#FEDB41"/>
<path d="M99.0553 0.846875C99.0131 0.805664 98.9992 0.741797 98.9547 0.703125L98.3814 1.51562L43.7617 78.7598L77.5646 99.5623C79.3252 100.645 81.6037 99.6127 81.9793 97.6082L99.9521 3.46973C100.143 2.47617 99.7404 1.51387 99.0553 0.846875Z" fill="#FFCC33"/>
</g>
<defs>
<clipPath id="clip0_566_11372">
<rect width="100" height="100" fill="white"/>
</clipPath>
</defs>
</svg>
