<svg width="33" height="32" viewBox="0 0 33 32" fill="none" xmlns="http://www.w3.org/2000/svg">
<path d="M13.3157 21V20.1051L16.6765 16.4261C17.0709 15.9953 17.3957 15.6207 17.6509 15.3026C17.9061 14.9811 18.0951 14.6795 18.2177 14.3977C18.3436 14.1127 18.4066 13.8144 18.4066 13.5028C18.4066 13.1449 18.3204 12.835 18.1481 12.5732C17.979 12.3113 17.747 12.1091 17.4521 11.9666C17.1571 11.8241 16.8256 11.7528 16.4577 11.7528C16.0666 11.7528 15.7253 11.834 15.4336 11.9964C15.1452 12.1555 14.9215 12.3793 14.7624 12.6676C14.6067 12.956 14.5288 13.294 14.5288 13.6818H13.3555C13.3555 13.0852 13.493 12.5616 13.7681 12.1108C14.0432 11.66 14.4177 11.3087 14.8917 11.0568C15.369 10.8049 15.9042 10.679 16.4975 10.679C17.0941 10.679 17.6228 10.8049 18.0835 11.0568C18.5442 11.3087 18.9054 11.6484 19.1673 12.076C19.4291 12.5036 19.56 12.9792 19.56 13.5028C19.56 13.8774 19.4921 14.2436 19.3562 14.6016C19.2236 14.9562 18.9916 15.3523 18.6602 15.7898C18.332 16.224 17.8763 16.7543 17.293 17.3807L15.006 19.8267V19.9062H19.739V21H13.3157Z" fill="#D2D2D2"/>
<rect x="1" y="0.5" width="31" height="31" rx="15.5" stroke="#D2D2D2"/>
</svg>
