<svg width="80" height="16" viewBox="0 0 80 16" fill="none" xmlns="http://www.w3.org/2000/svg">
<path d="M7.38272 1.75544C7.59605 1.19277 8.40338 1.19277 8.61738 1.75544L9.99738 5.5781C10.0941 5.83143 10.3401 6.0001 10.6147 6.0001H14.0061C14.6327 6.0001 14.9061 6.7801 14.4134 7.1621L12.0001 9.33343C11.8919 9.41654 11.8129 9.53175 11.7744 9.66254C11.7358 9.79333 11.7397 9.93297 11.7854 10.0614L12.6667 13.7968C12.8814 14.3968 12.1867 14.9121 11.6614 14.5428L8.38338 12.4628C8.27113 12.3839 8.13726 12.3415 8.00005 12.3415C7.86284 12.3415 7.72897 12.3839 7.61672 12.4628L4.33872 14.5428C3.81405 14.9121 3.11872 14.3961 3.33338 13.7968L4.21472 10.0614C4.26044 9.93297 4.26429 9.79333 4.22572 9.66254C4.18716 9.53175 4.10816 9.41654 4.00005 9.33343L1.58672 7.1621C1.09338 6.7801 1.36805 6.0001 1.99338 6.0001H5.38472C5.51825 6.00055 5.64876 5.96044 5.759 5.88508C5.86923 5.80973 5.95399 5.70268 6.00205 5.5781L7.38205 1.75544H7.38272Z" fill="#FFE923"/>
<path d="M23.3827 1.75544C23.5961 1.19277 24.4034 1.19277 24.6174 1.75544L25.9974 5.5781C26.0941 5.83143 26.3401 6.0001 26.6147 6.0001H30.0061C30.6327 6.0001 30.9061 6.7801 30.4134 7.1621L28.0001 9.33343C27.8919 9.41654 27.8129 9.53175 27.7744 9.66254C27.7358 9.79333 27.7397 9.93297 27.7854 10.0614L28.6667 13.7968C28.8814 14.3968 28.1867 14.9121 27.6614 14.5428L24.3834 12.4628C24.2711 12.3839 24.1373 12.3415 24.0001 12.3415C23.8628 12.3415 23.729 12.3839 23.6167 12.4628L20.3387 14.5428C19.8141 14.9121 19.1187 14.3961 19.3334 13.7968L20.2147 10.0614C20.2604 9.93297 20.2643 9.79333 20.2257 9.66254C20.1872 9.53175 20.1082 9.41654 20.0001 9.33343L17.5867 7.1621C17.0934 6.7801 17.3681 6.0001 17.9934 6.0001H21.3847C21.5182 6.00055 21.6488 5.96044 21.759 5.88508C21.8692 5.80973 21.954 5.70268 22.0021 5.5781L23.3821 1.75544H23.3827Z" fill="#FFE923"/>
<path d="M39.3827 1.75544C39.5961 1.19277 40.4034 1.19277 40.6174 1.75544L41.9974 5.5781C42.0941 5.83143 42.3401 6.0001 42.6147 6.0001H46.0061C46.6327 6.0001 46.9061 6.7801 46.4134 7.1621L44.0001 9.33343C43.8919 9.41654 43.8129 9.53175 43.7744 9.66254C43.7358 9.79333 43.7397 9.93297 43.7854 10.0614L44.6667 13.7968C44.8814 14.3968 44.1867 14.9121 43.6614 14.5428L40.3834 12.4628C40.2711 12.3839 40.1373 12.3415 40.0001 12.3415C39.8628 12.3415 39.729 12.3839 39.6167 12.4628L36.3387 14.5428C35.8141 14.9121 35.1187 14.3961 35.3334 13.7968L36.2147 10.0614C36.2604 9.93297 36.2643 9.79333 36.2257 9.66254C36.1872 9.53175 36.1082 9.41654 36.0001 9.33343L33.5867 7.1621C33.0934 6.7801 33.3681 6.0001 33.9934 6.0001H37.3847C37.5182 6.00055 37.6488 5.96044 37.759 5.88508C37.8692 5.80973 37.954 5.70268 38.0021 5.5781L39.3821 1.75544H39.3827Z" fill="#FFE923"/>
<path d="M55.3827 1.75544C55.5961 1.19277 56.4034 1.19277 56.6174 1.75544L57.9974 5.5781C58.0941 5.83143 58.3401 6.0001 58.6147 6.0001H62.0061C62.6327 6.0001 62.9061 6.7801 62.4134 7.1621L60.0001 9.33343C59.8919 9.41654 59.8129 9.53175 59.7744 9.66254C59.7358 9.79333 59.7397 9.93297 59.7854 10.0614L60.6667 13.7968C60.8814 14.3968 60.1867 14.9121 59.6614 14.5428L56.3834 12.4628C56.2711 12.3839 56.1373 12.3415 56.0001 12.3415C55.8628 12.3415 55.729 12.3839 55.6167 12.4628L52.3387 14.5428C51.8141 14.9121 51.1187 14.3961 51.3334 13.7968L52.2147 10.0614C52.2604 9.93297 52.2643 9.79333 52.2257 9.66254C52.1872 9.53175 52.1082 9.41654 52.0001 9.33343L49.5867 7.1621C49.0934 6.7801 49.3681 6.0001 49.9934 6.0001H53.3847C53.5182 6.00055 53.6488 5.96044 53.759 5.88508C53.8692 5.80973 53.954 5.70268 54.0021 5.5781L55.3821 1.75544H55.3827Z" fill="#FFE923"/>
<path d="M71.3827 1.75544C71.5961 1.19277 72.4034 1.19277 72.6174 1.75544L73.9974 5.5781C74.0941 5.83143 74.3401 6.0001 74.6147 6.0001H78.0061C78.6327 6.0001 78.9061 6.7801 78.4134 7.1621L76.0001 9.33343C75.8919 9.41654 75.8129 9.53175 75.7744 9.66254C75.7358 9.79333 75.7397 9.93297 75.7854 10.0614L76.6667 13.7968C76.8814 14.3968 76.1867 14.9121 75.6614 14.5428L72.3834 12.4628C72.2711 12.3839 72.1373 12.3415 72.0001 12.3415C71.8628 12.3415 71.729 12.3839 71.6167 12.4628L68.3387 14.5428C67.8141 14.9121 67.1187 14.3961 67.3334 13.7968L68.2147 10.0614C68.2604 9.93297 68.2643 9.79333 68.2257 9.66254C68.1872 9.53175 68.1082 9.41654 68.0001 9.33343L65.5867 7.1621C65.0934 6.7801 65.3681 6.0001 65.9934 6.0001H69.3847C69.5182 6.00055 69.6488 5.96044 69.759 5.88508C69.8692 5.80973 69.954 5.70268 70.0021 5.5781L71.3821 1.75544H71.3827Z" stroke="#D8D8D8" stroke-linecap="round" stroke-linejoin="round"/>
</svg>
