<svg width="24" height="24" viewBox="0 0 24 24" fill="none" xmlns="http://www.w3.org/2000/svg">
<path d="M11.0741 2.63318C11.3941 1.78918 12.6051 1.78918 12.9261 2.63318L14.9961 8.36718C15.1411 8.74718 15.5101 9.00018 15.9221 9.00018H21.0091C21.9491 9.00018 22.3591 10.1702 21.6201 10.7432L18.0001 14.0002C17.8379 14.1248 17.7194 14.2977 17.6616 14.4938C17.6037 14.69 17.6095 14.8995 17.6781 15.0922L19.0001 20.6952C19.3221 21.5952 18.2801 22.3682 17.4921 21.8142L12.5751 18.6942C12.4067 18.5758 12.2059 18.5123 12.0001 18.5123C11.7943 18.5123 11.5935 18.5758 11.4251 18.6942L6.50808 21.8142C5.72108 22.3682 4.67808 21.5942 5.00008 20.6952L6.32208 15.0922C6.39065 14.8995 6.39643 14.69 6.33858 14.4938C6.28074 14.2977 6.16223 14.1248 6.00008 14.0002L2.38008 10.7432C1.64008 10.1702 2.05208 9.00018 2.99008 9.00018H8.07708C8.27737 9.00085 8.47314 8.94069 8.63849 8.82765C8.80384 8.71462 8.93098 8.55405 9.00308 8.36718L11.0731 2.63318H11.0741Z" fill="#1D1D1D"/>
</svg>
