<svg width="24" height="24" viewBox="0 0 24 24" fill="none" xmlns="http://www.w3.org/2000/svg">
<rect width="24" height="24" rx="12" fill="#FAB318"/>
<path d="M18.5 8H5.5C5.22386 8 5 8.22386 5 8.5V15.5C5 15.7761 5.22386 16 5.5 16H18.5C18.7761 16 19 15.7761 19 15.5V8.5C19 8.22386 18.7761 8 18.5 8Z" stroke="white" stroke-linecap="round" stroke-linejoin="round"/>
<path d="M12 14C13.1046 14 14 13.1046 14 12C14 10.8954 13.1046 10 12 10C10.8954 10 10 10.8954 10 12C10 13.1046 10.8954 14 12 14Z" stroke="white" stroke-linecap="round" stroke-linejoin="round"/>
<path d="M15 8L19 11.5" stroke="white" stroke-linecap="round" stroke-linejoin="round"/>
<path d="M15 16L19 12.5" stroke="white" stroke-linecap="round" stroke-linejoin="round"/>
<path d="M9 8L5 11.5" stroke="white" stroke-linecap="round" stroke-linejoin="round"/>
<path d="M9 16L5 12.5" stroke="white" stroke-linecap="round" stroke-linejoin="round"/>
</svg>
