<svg width="100" height="100" viewBox="0 0 100 100" fill="none" xmlns="http://www.w3.org/2000/svg">
<path d="M46.4814 67.9645C45.3508 67.9645 44.3456 67.4619 43.7176 66.7083L24.7476 46.1052C23.3657 44.5978 23.4915 42.2107 24.9989 40.8288C26.5064 39.4469 28.8934 39.5726 30.2753 41.0801L46.6069 58.7936L91.8332 13.6931C93.3406 12.1856 95.7277 12.1856 97.1096 13.6931C98.4915 15.2005 98.6171 17.5876 97.1096 18.9695L49.1197 66.8339C48.4914 67.5877 47.4865 67.9645 46.4814 67.9645Z" fill="#36C43E"/>
<path d="M50.0001 100C22.4874 100 0 77.5126 0 50.0001C0 22.4876 22.4874 0 50.0001 0C52.1359 0 53.7689 1.63321 53.7689 3.76874C53.7689 5.90426 52.1357 7.53747 50.0001 7.53747C26.6331 7.53747 7.53771 26.6329 7.53771 49.9999C7.53771 73.3669 26.6331 92.4623 50.0001 92.4623C73.3671 92.4623 92.4625 73.3669 92.4625 49.9999C92.4625 47.8641 94.0957 46.2311 96.2313 46.2311C98.3668 46.2311 100 47.8644 100 49.9999C100 77.5126 77.5126 100 50.0001 100Z" fill="#3366FF"/>
</svg>
