<svg width="88" height="88" viewBox="0 0 88 88" fill="none" xmlns="http://www.w3.org/2000/svg">
<path d="M44 87.75C19.875 87.75 0.25 68.125 0.25 44C0.25 19.875 19.875 0.25 44 0.25C68.125 0.25 87.75 19.875 87.75 44C87.75 68.125 68.125 87.75 44 87.75ZM44 3C21.4062 3 3 21.4062 3 44C3 66.5938 21.4062 85 44 85C66.5938 85 85 66.625 85 44C85 21.375 66.5938 3 44 3Z" fill="#3366FF"/>
<path d="M44 79.2188C63.4508 79.2188 79.2188 63.4508 79.2188 44C79.2188 24.5492 63.4508 8.78125 44 8.78125C24.5492 8.78125 8.78125 24.5492 8.78125 44C8.78125 63.4508 24.5492 79.2188 44 79.2188Z" fill="#3366FF"/>
<path d="M39.4688 60.0938C38.2813 60.0938 37.125 59.6562 36.2188 58.75L22.3438 44.875C20.5313 43.0625 20.5313 40.1562 22.3438 38.375C24.1562 36.5625 27.0625 36.5625 28.8437 38.375L39.4688 49L59.1563 29.3125C60.9688 27.5 63.875 27.5 65.6563 29.3125C67.4688 31.125 67.4688 34.0312 65.6563 35.8125L42.6875 58.7812C41.8125 59.625 40.6563 60.0938 39.4688 60.0938Z" fill="white"/>
</svg>
