<svg width="24" height="24" viewBox="0 0 24 24" fill="none" xmlns="http://www.w3.org/2000/svg">
<g clip-path="url(#clip0_115_1555)">
<path d="M22.0702 19.6649L22.0646 19.6675V19.3029C22.0646 17.5807 20.9268 16.0657 19.273 15.5854L16.2581 14.71C16.2035 14.7666 16.1491 14.8221 16.0949 14.8772C15.5425 14.3754 15.4806 13.3568 15.4797 12.7634C16.0071 12.1896 16.4263 11.4965 16.738 10.7509C17.5182 11.2702 18.1936 9.62492 18.1936 8.9068C18.1936 8.37894 17.8817 8.07618 17.3864 8.09902C17.4084 7.84891 17.4194 7.60131 17.4194 7.3584C17.4194 4.25846 14.993 3.48697 12 3.48697C9.00693 3.48697 6.58059 4.25846 6.58059 7.3584C6.58059 7.60339 6.59182 7.85317 6.61412 8.10546C6.12115 8.04763 5.80639 8.35306 5.80639 8.9068C5.80639 9.65497 6.47801 11.4091 7.23014 10.6736C7.54461 11.4479 7.97425 12.1682 8.51909 12.7614C8.51585 13.3526 8.44893 14.3681 7.90016 14.8723C7.84757 14.8188 7.79487 14.7648 7.74189 14.71L4.72701 15.5854C3.07317 16.0657 1.93544 17.5807 1.93544 19.3029V19.6675L1.92983 19.6649C1.75118 19.5837 1.54834 19.7143 1.54834 19.9106V20.4272C1.54834 20.6343 1.66941 20.8223 1.85797 20.9081L2.32254 21.1192V22.8387C2.32254 23.4801 2.84246 24 3.48384 24H20.5162C21.1576 24 21.6775 23.4801 21.6775 22.8387V21.1192L22.1421 20.9081C22.3307 20.8224 22.4517 20.6343 22.4517 20.4272V19.9106C22.4517 19.7143 22.2488 19.5837 22.0702 19.6649Z" fill="#E6B47D"/>
<path d="M14.7097 16.6455L16.2422 14.9908C15.3765 14.4334 15.4839 12.7745 15.4839 12.3874H8.51611C9.01605 13.8246 12.3226 16.2906 14.7097 16.6455Z" fill="#D2A073"/>
<path d="M17.3864 8.09902C17.4084 7.84891 17.4194 7.60131 17.4194 7.3584C17.4194 4.25846 14.9931 3.48697 12 3.48697C9.00694 3.48697 6.5806 4.25846 6.5806 7.3584C6.5806 7.60339 6.59182 7.85317 6.61413 8.10546C6.12116 8.04763 5.8064 8.35306 5.8064 8.9068C5.8064 9.65497 6.47802 11.4091 7.23015 10.6736C8.04471 12.6793 9.62852 14.3262 12 14.3262C14.3409 14.3262 15.9144 12.7214 16.738 10.7509C17.5182 11.2702 18.1936 9.62492 18.1936 8.9068C18.1935 8.37894 17.8817 8.07623 17.3864 8.09902Z" fill="#F0C891"/>
<path d="M16.2582 14.71C13.952 17.0976 12.0001 18.1939 12.0001 18.1939C12.0001 18.1939 10.0482 17.0976 7.742 14.71L4.72712 15.5854C3.07328 16.0656 1.93555 17.5807 1.93555 19.3029V20.3053L5.80655 22.0649V24H18.1937V22.0649L22.0647 20.3053V19.3029C22.0647 17.5807 20.927 16.0657 19.2732 15.5854L16.2582 14.71Z" fill="#F5F5F5"/>
<path d="M21.6775 20.5165H20.9033V19.3029C20.9033 18.1049 20.0998 17.0347 18.9492 16.7007L16.3781 15.9541L16.5939 15.2105L19.1651 15.9571C20.6443 16.3868 21.6775 17.7626 21.6775 19.3029V20.5165ZM3.09671 20.5165H2.32251V19.3029C2.32251 17.7626 3.35568 16.3867 4.83488 15.9571L7.40605 15.2105L7.62191 15.9541L5.05074 16.7007C3.90023 17.0346 3.09671 18.1049 3.09671 19.3028V20.5165Z" fill="#FFBE37"/>
<path d="M1.85797 20.908L5.80644 22.7028V21.4271L1.92983 19.6649C1.75118 19.5837 1.54834 19.7143 1.54834 19.9106V20.4272C1.54839 20.6343 1.66941 20.8223 1.85797 20.908Z" fill="#C85050"/>
<path d="M22.1421 20.908L18.1936 22.7028V21.4271L22.0702 19.6649C22.2489 19.5837 22.4517 19.7143 22.4517 19.9106V20.4272C22.4517 20.6343 22.3306 20.8223 22.1421 20.908Z" fill="#C85050"/>
<path d="M16.258 14.71C13.9518 17.0976 11.9999 18.1939 11.9999 18.1939C11.9999 18.1939 10.0481 17.0976 7.74182 14.71L6.45776 15.0829C9.11801 17.8449 11.3205 19.1423 11.4166 19.1981L11.9999 19.5368L12.5832 19.1981C12.6793 19.1423 14.8818 17.8448 17.5421 15.0829L16.258 14.71Z" fill="#C85050"/>
<path d="M16.258 21.2903H13.9354C13.7217 21.2903 13.5483 21.4636 13.5483 21.6774V22.0645C13.5483 22.972 13.8066 23.5863 14.1115 24H16.082C16.3869 23.5863 16.6452 22.972 16.6452 22.0645V21.6774C16.6451 21.4636 16.4719 21.2903 16.258 21.2903Z" fill="#FFBE37"/>
<path d="M15.3436 24C15.7468 23.2709 15.8712 22.4452 15.8712 22.0645H15.097H14.3228C14.3228 22.4452 14.4472 23.2709 14.8503 24H15.3436Z" fill="#C85050"/>
<path d="M17.4195 0.77726C14.86 0.77726 10.8629 -1.20648 9.29984 1.16436C9.19561 1.16436 9.0923 1.16436 8.9033 1.16436C7.40677 1.16436 6.1936 2.39127 6.1936 3.8878C6.1936 5.2773 6.5807 7.35839 6.5807 7.35839C6.5807 7.35839 7.01619 5.3987 8.9033 4.64869C8.90384 4.6485 8.90437 4.64821 8.9049 4.64797L8.9033 4.66244C12.7098 6.72699 16.2582 5.42289 16.2582 5.42289L17.4195 7.35839C18.0727 5.15676 17.8066 1.33372 17.4195 0.77726Z" fill="#64464B"/>
</g>
<defs>
<clipPath id="clip0_115_1555">
<rect width="24" height="24" fill="white"/>
</clipPath>
</defs>
</svg>
