<svg width="24" height="24" viewBox="0 0 24 24" fill="none" xmlns="http://www.w3.org/2000/svg">
<g clip-path="url(#clip0_2152_63656)">
<path d="M22.0687 19.6663L22.0631 19.6688V19.3042C22.0631 17.5821 20.9254 16.067 19.2715 15.5868L16.2566 14.7113C16.202 14.7679 16.1477 14.8234 16.0935 14.8785C15.5411 14.3767 15.4791 13.3581 15.4783 12.7647C16.0056 12.1909 16.4249 11.4979 16.7365 10.7522C17.5167 11.2716 18.1921 9.62623 18.1921 8.90812C18.1921 8.38026 17.8802 8.0775 17.385 8.10033C17.4069 7.85022 17.4179 7.60262 17.4179 7.35972C17.4179 4.25977 14.9916 3.48828 11.9985 3.48828C9.00547 3.48828 6.57912 4.25977 6.57912 7.35972C6.57912 7.6047 6.59035 7.85448 6.61266 8.10677C6.11969 8.04895 5.80492 8.35437 5.80492 8.90812C5.80492 9.65628 6.47654 11.4104 7.22868 10.6749C7.54315 11.4492 7.97278 12.1695 8.51762 12.7628C8.51438 13.354 8.44746 14.3694 7.8987 14.8736C7.8461 14.8201 7.79341 14.7661 7.74042 14.7113L4.72555 15.5868C3.07171 16.067 1.93397 17.5821 1.93397 19.3042V19.6688L1.92836 19.6663C1.74972 19.5851 1.54688 19.7157 1.54688 19.9119V20.4285C1.54688 20.6356 1.66794 20.8236 1.85651 20.9094L2.32107 21.1205V22.84C2.32107 23.4814 2.841 24.0013 3.48237 24.0013H20.5148C21.1561 24.0013 21.6761 23.4814 21.6761 22.84V21.1205L22.1406 20.9094C22.3292 20.8237 22.4503 20.6356 22.4503 20.4285V19.9119C22.4502 19.7157 22.2474 19.585 22.0687 19.6663Z" fill="#E6B47D"/>
<path d="M14.7092 16.6448L16.2417 14.9901C15.376 14.4327 15.4834 12.7738 15.4834 12.3867H8.51562C9.01556 13.824 12.3221 16.2899 14.7092 16.6448Z" fill="#D2A073"/>
<path d="M17.3847 8.10033C17.4067 7.85022 17.4177 7.60262 17.4177 7.35972C17.4177 4.25977 14.9913 3.48828 11.9983 3.48828C9.00523 3.48828 6.57889 4.25977 6.57889 7.35972C6.57889 7.6047 6.59011 7.85448 6.61242 8.10677C6.11945 8.04895 5.80469 8.35437 5.80469 8.90812C5.80469 9.65628 6.47631 11.4104 7.22844 10.6749C8.043 12.6806 9.62682 14.3275 11.9983 14.3275C14.3392 14.3275 15.9127 12.7227 16.7363 10.7522C17.5165 11.2716 18.1919 9.62623 18.1919 8.90812C18.1918 8.38026 17.88 8.07754 17.3847 8.10033Z" fill="#F0C891"/>
<path d="M16.2562 14.7109C13.95 17.0985 11.9981 18.1948 11.9981 18.1948C11.9981 18.1948 10.0463 17.0985 7.74004 14.7109L4.72516 15.5864C3.07133 16.0666 1.93359 17.5817 1.93359 19.3038V20.3063L5.80459 22.0658V24.0009H18.1918V22.0658L22.0628 20.3063V19.3038C22.0628 17.5817 20.9251 16.0666 19.2712 15.5864L16.2562 14.7109Z" fill="#FFE923"/>
<path d="M21.6753 20.517H20.9011V19.3033C20.9011 18.1053 20.0976 17.0351 18.947 16.7012L16.3759 15.9546L16.5917 15.211L19.1629 15.9576C20.6421 16.3872 21.6753 17.7631 21.6753 19.3034V20.517ZM3.09451 20.517H2.32031V19.3033C2.32031 17.763 3.35348 16.3872 4.83269 15.9576L7.40385 15.2109L7.61971 15.9545L5.04854 16.7011C3.89804 17.0351 3.09451 18.1053 3.09451 19.3033V20.517Z" fill="#FFBE37"/>
<path d="M1.85651 20.9082L5.80497 22.703V21.4272L1.92836 19.6651C1.74972 19.5839 1.54688 19.7145 1.54688 19.9108V20.4274C1.54692 20.6345 1.66794 20.8224 1.85651 20.9082Z" fill="#C85050"/>
<path d="M22.1399 20.9082L18.1914 22.703V21.4272L22.068 19.6651C22.2467 19.5839 22.4495 19.7145 22.4495 19.9108V20.4274C22.4495 20.6345 22.3284 20.8224 22.1399 20.9082Z" fill="#C85050"/>
<path d="M16.2573 14.7109C13.951 17.0985 11.9992 18.1948 11.9992 18.1948C11.9992 18.1948 10.0473 17.0985 7.74109 14.7109L6.45703 15.0838C9.11728 17.8458 11.3198 19.1432 11.4159 19.1991L11.9992 19.5378L12.5825 19.1991C12.6786 19.1432 14.8811 17.8458 17.5413 15.0838L16.2573 14.7109Z" fill="#C85050"/>
<path d="M16.2566 21.2891H13.934C13.7202 21.2891 13.5469 21.4624 13.5469 21.6762V22.0633C13.5469 22.9708 13.8051 23.5851 14.1101 23.9988H16.0805C16.3854 23.5851 16.6437 22.9708 16.6437 22.0633V21.6762C16.6437 21.4624 16.4704 21.2891 16.2566 21.2891Z" fill="#FFBE37"/>
<path d="M15.3412 24.0019C15.7444 23.2729 15.8687 22.4471 15.8687 22.0664H15.0945H14.3203C14.3203 22.4471 14.4447 23.2729 14.8478 24.0019H15.3412Z" fill="#C85050"/>
<path d="M17.4173 0.77726C14.8578 0.77726 10.8607 -1.20648 9.29764 1.16436C9.19341 1.16436 9.09011 1.16436 8.90111 1.16436C7.40458 1.16436 6.19141 2.39127 6.19141 3.8878C6.19141 5.2773 6.57851 7.35839 6.57851 7.35839C6.57851 7.35839 7.01399 5.3987 8.90111 4.64869C8.90164 4.6485 8.90217 4.64821 8.9027 4.64797L8.90111 4.66244C12.7076 6.72699 16.256 5.42289 16.256 5.42289L17.4173 7.35839C18.0705 5.15676 17.8044 1.33372 17.4173 0.77726Z" fill="#64464B"/>
</g>
<defs>
<clipPath id="clip0_2152_63656">
<rect width="24" height="24" fill="white"/>
</clipPath>
</defs>
</svg>
